<?xml version="1.0" encoding="UTF-8" standalone="no"?>
<!-- Created with Inkscape (http://www.inkscape.org/) -->

<svg
   xmlns:dc="http://purl.org/dc/elements/1.1/"
   xmlns:cc="http://creativecommons.org/ns#"
   xmlns:rdf="http://www.w3.org/1999/02/22-rdf-syntax-ns#"
   xmlns:svg="http://www.w3.org/2000/svg"
   xmlns="http://www.w3.org/2000/svg"
   xmlns:sodipodi="http://sodipodi.sourceforge.net/DTD/sodipodi-0.dtd"
   xmlns:inkscape="http://www.inkscape.org/namespaces/inkscape"
   width="32"
   height="32"
   viewBox="0 0 32 32"
   id="svg2"
   version="1.1"
   inkscape:version="0.91 r13725"
   sodipodi:docname="icon.svg">
  <defs
     id="defs4" />
  <sodipodi:namedview
     id="base"
     pagecolor="#ffffff"
     bordercolor="#666666"
     borderopacity="1.0"
     inkscape:pageopacity="0.0"
     inkscape:pageshadow="2"
     inkscape:zoom="15.839192"
     inkscape:cx="24.649781"
     inkscape:cy="22.653983"
     inkscape:document-units="px"
     inkscape:current-layer="layer1"
     showgrid="false"
     units="px"
     inkscape:window-width="1920"
     inkscape:window-height="1035"
     inkscape:window-x="0"
     inkscape:window-y="1"
     inkscape:window-maximized="1" />
  <metadata
     id="metadata7">
    <rdf:RDF>
      <cc:Work
         rdf:about="">
        <dc:format>image/svg+xml</dc:format>
        <dc:type
           rdf:resource="http://purl.org/dc/dcmitype/StillImage" />
        <dc:title></dc:title>
      </cc:Work>
    </rdf:RDF>
  </metadata>
  <g
     inkscape:label="Layer 1"
     inkscape:groupmode="layer"
     id="layer1"
     transform="translate(0,-1020.3622)">
    <flowRoot
       xml:space="preserve"
       id="flowRoot4314"
       style="font-style:normal;font-weight:normal;font-size:40px;line-height:125%;font-family:sans-serif;letter-spacing:0px;word-spacing:0px;fill:#000000;fill-opacity:1;stroke:none;stroke-width:1px;stroke-linecap:butt;stroke-linejoin:miter;stroke-opacity:1"
       transform="translate(0,772.36216)"><flowRegion
         id="flowRegion4316"><rect
           id="rect4318"
           width="80.812202"
           height="71.720833"
           x="391.93918"
           y="78.979645" /></flowRegion><flowPara
         id="flowPara4320"></flowPara></flowRoot>    <g
       style="font-style:normal;font-variant:normal;font-weight:normal;font-stretch:normal;font-size:215.65113831px;line-height:125%;font-family:'Bitstream Charter';-inkscape-font-specification:'Bitstream Charter, Normal';text-align:start;letter-spacing:0px;word-spacing:0px;writing-mode:lr-tb;text-anchor:start;fill:#00a800;fill-opacity:1;stroke:#00a800;stroke-width:8;stroke-linecap:butt;stroke-linejoin:miter;stroke-miterlimit:4;stroke-dasharray:none;stroke-opacity:1"
       id="text4322"
       transform="matrix(0.18104179,0,0,0.18104179,-23.699497,877.60359)">
      <path
         d="m 152.98807,955.82739 54.55973,0 0,-8.84169 -13.80167,-1.07826 -3.66607,-3.01912 0,-118.82377 3.66607,-3.01912 13.80167,-1.29391 0,-8.62604 -54.55973,0 0,8.62604 13.80167,1.29391 3.66607,3.01912 0,118.82377 -3.66607,3.01912 -13.80167,1.07826 0,8.84169 z"
         style="stroke-width:8;stroke-miterlimit:4;stroke-dasharray:none"
         id="path4331"
         inkscape:connector-curvature="0" />
      <path
         d="m 221.6123,955.82739 50.24672,0 0,-7.76344 -13.37037,-1.07825 -3.66607,-3.45042 0,-78.49702 30.19116,0 0,-10.1356 -29.97551,0 0,-15.74253 c 0,-18.1147 4.74433,-29.32856 14.01732,-33.64158 l 19.62426,12.93907 c 5.60693,-1.50956 8.8417,-5.60693 8.8417,-10.78256 0,-6.90084 -6.90084,-12.29211 -16.82079,-12.29211 -25.44684,0 -43.77718,21.34946 -43.77718,57.14755 0,0.64695 0,1.50956 0,2.37216 l -13.80168,3.23477 0,6.90083 13.80168,0 0,78.49702 -3.88173,3.45042 -11.42951,1.07825 0,7.76344 z"
         style="stroke-width:8;stroke-miterlimit:4;stroke-dasharray:none"
         id="path4333"
         inkscape:connector-curvature="0" />
    </g>
  </g>
</svg>
