<?xml version="1.0" encoding="UTF-8" standalone="no"?>
<!-- Created with Inkscape (http://www.inkscape.org/) -->

<svg
   xmlns:dc="http://purl.org/dc/elements/1.1/"
   xmlns:cc="http://creativecommons.org/ns#"
   xmlns:rdf="http://www.w3.org/1999/02/22-rdf-syntax-ns#"
   xmlns:svg="http://www.w3.org/2000/svg"
   xmlns="http://www.w3.org/2000/svg"
   xmlns:sodipodi="http://sodipodi.sourceforge.net/DTD/sodipodi-0.dtd"
   xmlns:inkscape="http://www.inkscape.org/namespaces/inkscape"
   width="440"
   height="280"
   viewBox="0 0 440 280"
   id="svg2"
   version="1.1"
   inkscape:version="0.91 r13725"
   sodipodi:docname="promotion_tile_small.svg">
  <defs
     id="defs4" />
  <sodipodi:namedview
     id="base"
     pagecolor="#ffffff"
     bordercolor="#666666"
     borderopacity="1.0"
     inkscape:pageopacity="0.0"
     inkscape:pageshadow="2"
     inkscape:zoom="1.979899"
     inkscape:cx="296.71613"
     inkscape:cy="184.42736"
     inkscape:document-units="px"
     inkscape:current-layer="layer1"
     showgrid="false"
     units="px"
     inkscape:window-width="1920"
     inkscape:window-height="1035"
     inkscape:window-x="0"
     inkscape:window-y="1"
     inkscape:window-maximized="1" />
  <metadata
     id="metadata7">
    <rdf:RDF>
      <cc:Work
         rdf:about="">
        <dc:format>image/svg+xml</dc:format>
        <dc:type
           rdf:resource="http://purl.org/dc/dcmitype/StillImage" />
        <dc:title></dc:title>
      </cc:Work>
    </rdf:RDF>
  </metadata>
  <g
     inkscape:label="Layer 1"
     inkscape:groupmode="layer"
     id="layer1"
     transform="translate(0,-772.36216)">
    <g
       style="font-style:normal;font-variant:normal;font-weight:normal;font-stretch:normal;font-size:26.77375031px;line-height:125%;font-family:'Luxi Sans';-inkscape-font-specification:'Luxi Sans, Normal';text-align:start;letter-spacing:0px;word-spacing:0px;writing-mode:lr-tb;text-anchor:start;fill:#000000;fill-opacity:1;stroke:none;stroke-width:1px;stroke-linecap:butt;stroke-linejoin:miter;stroke-opacity:1"
       id="text4213"
       transform="translate(-12,0)">
      <path
         d="m 47.927966,1013.8632 0,-19.3482 7.58241,0 q 2.993744,0 4.287983,0.3399 1.320385,0.35298 2.143992,1.34653 1.032776,1.25502 1.032776,3.42516 0,6.54961 -8.275285,6.54961 l -4.026521,0 0,7.687 -2.745355,0 z m 2.745355,-9.7656 3.908863,0 q 5.490711,0 5.490711,-4.30106 0,-2.0917 -1.424971,-2.70613 -1.2158,-0.52293 -4.000374,-0.52293 l -3.974229,0 0,7.53012 z"
         id="path4237"
         inkscape:connector-curvature="0" />
      <path
         d="m 73.91733,1013.8632 0,-2.6538 q -0.954338,1.3204 -1.869456,2.0002 -1.346532,0.9804 -2.954526,0.9804 -3.608181,0 -3.608181,-4.3272 l 0,-10.19699 2.575405,0 0,9.36039 q 0,1.7125 0.352974,2.327 0.366048,0.6144 1.359605,0.6144 2.117845,0 4.144179,-3.0983 l 0,-9.20349 2.575405,0 0,14.19739 -2.575405,0 z"
         id="path4239"
         inkscape:connector-curvature="0" />
      <path
         d="m 83.068512,1004.6728 0,7.2425 q 1.791018,0.3399 2.693063,0.3399 3.68662,0 3.68662,-5.6083 0,-2.3663 -0.732095,-3.6997 -0.719021,-1.3466 -1.947895,-1.3466 -1.647213,0 -3.699693,3.0722 z m 0,-2.3401 q 0.732095,-1.3334 1.542628,-2.0132 1.163508,-0.96744 2.706136,-0.96744 2.209358,0 3.555889,1.92174 1.359604,1.9218 1.359604,5.1116 0,3.7258 -1.751798,5.7652 -1.738725,2.0394 -4.941639,2.0394 -1.189654,0 -2.47082,-0.3268 l -2.575405,0.1569 0,-20.79934 2.575405,0 0,9.11194 z"
         id="path4241"
         inkscape:connector-curvature="0" />
      <path
         d="m 95.487978,1013.8632 0,-19.3482 3.804278,0 5.320764,14.9687 5.46456,-14.9687 3.39901,0 0,19.3482 -2.56233,0 0,-15.72694 -5.28154,14.43274 -2.65384,0 -5.124667,-14.48504 0,15.77924 -2.366235,0 z"
         id="path4243"
         inkscape:connector-curvature="0" />
      <path
         d="m 126.30132,1005.235 q -0.0392,-1.2812 -0.26146,-1.9479 -0.6798,-2.0133 -2.95453,-2.0133 -1.58184,0 -2.49696,0.9413 -0.88897,0.902 -1.11122,3.0199 l 6.82417,0 z m 2.54926,6.1313 0,2.0394 q -2.65384,0.7843 -4.8632,0.7843 -3.33365,0 -5.29461,-2.0655 -1.96097,-2.0656 -1.96097,-5.543 0,-3.3075 1.73872,-5.2685 1.72565,-1.96094 4.68018,-1.96094 3.38594,0 4.78476,2.40544 1.03278,1.791 0.99356,4.6148 l -0.0131,0.7975 -9.47802,0 q 0.15688,1.5557 0.50986,2.3662 1.15043,2.6931 4.58866,2.6931 1.9479,0 4.31413,-0.8628 z"
         id="path4245"
         inkscape:connector-curvature="0" />
      <path
         d="m 140.79941,1008.8693 0,-7.2556 q -1.81716,-0.3268 -2.67999,-0.3268 -3.69969,0 -3.69969,5.6214 0,2.327 0.7321,3.6736 0.71902,1.3465 1.94789,1.3465 1.64721,0 3.69969,-3.0591 z m 0,2.3401 q -0.73209,1.3334 -1.54262,2.0132 -1.15044,0.9674 -2.70614,0.9674 -2.20936,0 -3.55589,-1.9348 -1.3596,-1.9217 -1.3596,-5.1116 0,-3.7127 1.75179,-5.7521 1.7518,-2.03944 4.92857,-2.03944 1.22887,0 2.48389,0.31375 l 0,-6.44505 2.57541,0 0,20.64244 -2.57541,0 0,-2.6538 z"
         id="path4247"
         inkscape:connector-curvature="0" />
      <path
         d="m 172.27855,1013.8632 0,-14.19739 2.5754,0 0,2.66689 q 1.13736,-1.6995 1.86946,-2.3008 0.84975,-0.67984 2.2355,-0.67984 1.69951,0 2.75843,1.09814 0.61444,0.6406 1.07199,1.8825 1.15044,-1.7256 1.86946,-2.3008 0.84975,-0.67984 2.24858,-0.67984 3.80428,0 3.80428,4.18344 l 0,10.3277 -2.57541,0 -0.0131,-9.9225 q 0,-2.4447 -1.88253,-2.4447 -1.67336,0 -3.45131,2.85 l 0,9.5172 -2.58847,0 0,-9.9225 q 0,-2.4447 -1.89561,-2.4447 -1.67335,0 -3.4513,2.85 l 0,9.5172 -2.5754,0 z"
         id="path4251"
         inkscape:connector-curvature="0" />
      <path
         d="m 197.02597,1019.0271 -2.5754,0 0,-19.36129 2.5754,0 0,2.66689 q 0.7321,-1.3334 1.54263,-2.0132 1.15043,-0.96744 2.70613,-0.96744 2.20936,0 3.55589,1.92174 1.35961,1.9218 1.35961,5.1116 0,3.7258 -1.7518,5.7652 -1.73873,2.0394 -4.94164,2.0394 -1.18965,0 -2.47082,-0.3268 l 0,5.1639 z m 0,-14.3543 0,7.2425 q 1.79102,0.3399 2.69306,0.3399 3.68662,0 3.68662,-5.6083 0,-2.3663 -0.73209,-3.6997 -0.71902,-1.3466 -1.9479,-1.3466 -1.64721,0 -3.69969,3.0722 z"
         id="path4253"
         inkscape:connector-curvature="0" />
      <path
         d="m 217.40696,1012.0591 q -2.41853,2.1309 -4.70632,2.1309 -1.84331,0 -3.00682,-1.085 -1.16351,-1.0982 -1.16351,-2.8107 0,-4.824 7.89617,-4.824 l 0.60136,0 0,-1.7126 q 0,-2.4708 -2.73228,-2.4708 -2.11785,0 -4.53638,1.255 l 0,-2.1309 q 2.67999,-1.05894 5.03316,-1.05894 2.51003,0 3.66047,1.05894 1.15043,1.0458 1.15043,3.3467 l 0,6.432 q 0,2.2093 1.35961,2.2093 0.18302,0 0.49678,-0.052 l 0.18302,1.425 q -0.95434,0.4183 -1.90868,0.4183 -0.88897,0 -1.46418,-0.4967 -0.56215,-0.4837 -0.86283,-1.6342 z m -0.37912,-1.3988 0,-3.6735 -0.84975,-0.026 q -0.78439,-0.026 -1.73873,0.1177 -3.24213,0.4575 -3.24213,2.8238 0,2.1832 2.36623,2.1832 1.64722,0 3.46438,-1.425 z"
         id="path4255"
         inkscape:connector-curvature="0" />
      <path
         d="m 234.29742,1013.4318 q -2.36623,0.7582 -4.45793,0.7582 -2.94145,0 -4.73247,-2.0655 -1.79102,-2.0525 -1.79102,-5.36 0,-3.4774 1.83024,-5.4384 1.81716,-1.97404 5.09852,-1.97404 1.64721,0 3.89579,0.47063 l 0,2.14401 q -2.14399,-0.6406 -3.42516,-0.6406 -4.49715,0 -4.49715,5.4384 0,2.5623 1.1635,3.9481 1.15044,1.3988 3.22906,1.3988 1.58185,0 3.68662,-0.902 l 0,2.2224 z"
         id="path4257"
         inkscape:connector-curvature="0" />
      <path
         d="m 242.50736,1013.9417 q -0.78439,0.2483 -1.47727,0.2483 -3.46437,0 -3.46437,-4.2487 l 0,-8.3407 -1.608,0 0,-1.93479 1.608,0 0,-2.5754 2.5754,-0.24839 0,2.82379 2.74536,0 0,1.93479 -2.74536,0 0,7.8701 q 0,1.6864 0.28761,2.2355 0.28761,0.549 1.20273,0.549 0.49678,0 0.8759,-0.1438 l 0,1.8303 z"
         id="path4259"
         inkscape:connector-curvature="0" />
      <path
         d="m 283.68693,1012.0591 q -2.41853,2.1309 -4.70633,2.1309 -1.84331,0 -3.00681,-1.085 -1.16351,-1.0982 -1.16351,-2.8107 0,-4.824 7.89616,-4.824 l 0.60137,0 0,-1.7126 q 0,-2.4708 -2.73228,-2.4708 -2.11785,0 -4.53638,1.255 l 0,-2.1309 q 2.67999,-1.05894 5.03315,-1.05894 2.51004,0 3.66048,1.05894 1.15043,1.0458 1.15043,3.3467 l 0,6.432 q 0,2.2093 1.35961,2.2093 0.18302,0 0.49678,-0.052 l 0.18302,1.425 q -0.95434,0.4183 -1.90868,0.4183 -0.88897,0 -1.46419,-0.4967 -0.56214,-0.4837 -0.86282,-1.6342 z m -0.37912,-1.3988 0,-3.6735 -0.84976,-0.026 q -0.78438,-0.026 -1.73872,0.1177 -3.24213,0.4575 -3.24213,2.8238 0,2.1832 2.36623,2.1832 1.64721,0 3.46438,-1.425 z"
         id="path4263"
         inkscape:connector-curvature="0" />
      <path
         d="m 300.60355,1013.4318 q -2.36624,0.7582 -4.45794,0.7582 -2.94145,0 -4.73247,-2.0655 -1.79101,-2.0525 -1.79101,-5.36 0,-3.4774 1.83023,-5.4384 1.81717,-1.97404 5.09852,-1.97404 1.64721,0 3.89579,0.47063 l 0,2.14401 q -2.14399,-0.6406 -3.42516,-0.6406 -4.49715,0 -4.49715,5.4384 0,2.5623 1.16351,3.9481 1.15043,1.3988 3.22906,1.3988 1.58184,0 3.68662,-0.902 l 0,2.2224 z"
         id="path4265"
         inkscape:connector-curvature="0" />
      <path
         d="m 308.81346,1013.9417 q -0.78439,0.2483 -1.47726,0.2483 -3.46438,0 -3.46438,-4.2487 l 0,-8.3407 -1.60799,0 0,-1.93479 1.60799,0 0,-2.5754 2.57541,-0.24839 0,2.82379 2.74535,0 0,1.93479 -2.74535,0 0,7.8701 q 0,1.6864 0.28761,2.2355 0.2876,0.549 1.20272,0.549 0.49678,0 0.8759,-0.1438 l 0,1.8303 z"
         id="path4267"
         inkscape:connector-curvature="0" />
      <path
         d="m 316.59198,999.35206 q 2.9153,0 4.61481,1.98714 1.6995,1.974 1.6995,5.4122 0,3.4906 -1.6995,5.4646 -1.69951,1.974 -4.70633,1.974 -2.5754,0 -4.18339,-1.6341 -2.03941,-2.0525 -2.03941,-5.7914 0,-3.4382 1.6995,-5.4253 1.69951,-1.98714 4.61482,-1.98714 z m 0,1.93484 q -3.52975,0 -3.52975,5.4645 0,5.5038 3.51667,5.5038 3.54282,0 3.54282,-5.543 0,-5.4253 -3.52974,-5.4253 z"
         id="path4269"
         inkscape:connector-curvature="0" />
      <path
         d="m 326.01769,1013.8632 0,-14.19739 2.5754,0 0,2.66689 q 0.56215,-1.3465 1.20273,-2.0132 0.92819,-0.96744 2.20936,-0.96744 0.24839,0 0.73209,0.0654 l 0,2.40544 q -0.6798,-0.2223 -1.09814,-0.2223 -1.42497,0 -3.04604,2.9023 l 0,9.3603 -2.5754,0 z"
         id="path4271"
         inkscape:connector-curvature="0" />
      <path
         d="m 341.88845,1013.1834 0,-2.7192 q 3.86964,1.8302 7.6347,1.8302 4.22262,0 4.22262,-3.1244 0,-1.6211 -1.16351,-2.3793 -0.90204,-0.6014 -2.90223,-1.2551 l -2.6277,-0.8628 q -5.0593,-1.6603 -5.0593,-5.47762 0,-5.16388 7.08564,-5.16388 3.03296,0 6.28817,0.8236 l 0,2.52312 q -3.39901,-1.29424 -6.45812,-1.29424 -4.26184,0 -4.26184,2.90223 0,1.13739 0.79746,1.83019 0.82361,0.7191 2.90223,1.3989 l 2.69306,0.8759 q 3.04604,0.9935 4.28799,2.2747 1.24194,1.2681 1.24194,3.399 0,2.5754 -1.90867,4.0788 -1.8956,1.5034 -5.24232,1.5034 -3.29443,0 -7.53012,-1.1635 z"
         id="path4273"
         inkscape:connector-curvature="0" />
      <path
         d="m 368.89752,1005.235 q -0.0392,-1.2812 -0.26146,-1.9479 -0.6798,-2.0133 -2.95453,-2.0133 -1.58184,0 -2.49696,0.9413 -0.88897,0.902 -1.11122,3.0199 l 6.82417,0 z m 2.54926,6.1313 0,2.0394 q -2.65384,0.7843 -4.8632,0.7843 -3.33365,0 -5.29461,-2.0655 -1.96097,-2.0656 -1.96097,-5.543 0,-3.3075 1.73872,-5.2685 1.72565,-1.96094 4.68018,-1.96094 3.38594,0 4.78476,2.40544 1.03278,1.791 0.99356,4.6148 l -0.0131,0.7975 -9.47802,0 q 0.15688,1.5557 0.50985,2.3662 1.15044,2.6931 4.58867,2.6931 1.94789,0 4.31413,-0.8628 z"
         id="path4275"
         inkscape:connector-curvature="0" />
      <path
         d="m 383.22569,1012.0591 q -2.41853,2.1309 -4.70633,2.1309 -1.84331,0 -3.00682,-1.085 -1.1635,-1.0982 -1.1635,-2.8107 0,-4.824 7.89616,-4.824 l 0.60136,0 0,-1.7126 q 0,-2.4708 -2.73228,-2.4708 -2.11784,0 -4.53637,1.255 l 0,-2.1309 q 2.67999,-1.05894 5.03315,-1.05894 2.51004,0 3.66047,1.05894 1.15044,1.0458 1.15044,3.3467 l 0,6.432 q 0,2.2093 1.3596,2.2093 0.18303,0 0.49678,-0.052 l 0.18303,1.425 q -0.95434,0.4183 -1.90868,0.4183 -0.88897,0 -1.46419,-0.4967 -0.56214,-0.4837 -0.86282,-1.6342 z m -0.37913,-1.3988 0,-3.6735 -0.84975,-0.026 q -0.78439,-0.026 -1.73872,0.1177 -3.24214,0.4575 -3.24214,2.8238 0,2.1832 2.36624,2.1832 1.64721,0 3.46437,-1.425 z"
         id="path4277"
         inkscape:connector-curvature="0" />
      <path
         d="m 390.0237,1013.8632 0,-14.19739 2.57541,0 0,2.66689 q 0.56214,-1.3465 1.20272,-2.0132 0.92819,-0.96744 2.20936,-0.96744 0.24839,0 0.7321,0.0654 l 0,2.40544 q -0.67981,-0.2223 -1.09815,-0.2223 -1.42497,0 -3.04603,2.9023 l 0,9.3603 -2.57541,0 z"
         id="path4279"
         inkscape:connector-curvature="0" />
      <path
         d="m 408.87512,1013.4318 q -2.36623,0.7582 -4.45793,0.7582 -2.94145,0 -4.73247,-2.0655 -1.79102,-2.0525 -1.79102,-5.36 0,-3.4774 1.83024,-5.4384 1.81716,-1.97404 5.09852,-1.97404 1.64721,0 3.89578,0.47063 l 0,2.14401 q -2.14399,-0.6406 -3.42515,-0.6406 -4.49716,0 -4.49716,5.4384 0,2.5623 1.16351,3.9481 1.15044,1.3988 3.22906,1.3988 1.58185,0 3.68662,-0.902 l 0,2.2224 z"
         id="path4281"
         inkscape:connector-curvature="0" />
      <path
         d="m 411.67278,1013.8632 0,-20.64244 2.5754,0 0,9.11194 q 0.95434,-1.3204 1.88253,-2.0002 1.34654,-0.98044 2.95453,-0.98044 3.60818,0 3.60818,4.31414 l 0,10.197 -2.58848,0 0,-9.3603 q 0,-1.7257 -0.35297,-2.327 -0.36605,-0.6145 -1.35961,-0.6145 -2.11784,0 -4.14418,3.1114 l 0,9.1904 -2.5754,0 z"
         id="path4283"
         inkscape:connector-curvature="0" />
    </g>
    <flowRoot
       xml:space="preserve"
       id="flowRoot4314"
       style="fill:black;stroke:none;stroke-opacity:1;stroke-width:1px;stroke-linejoin:miter;stroke-linecap:butt;fill-opacity:1;font-family:sans-serif;font-style:normal;font-weight:normal;font-size:40px;line-height:125%;letter-spacing:0px;word-spacing:0px"><flowRegion
         id="flowRegion4316"><rect
           id="rect4318"
           width="80.812202"
           height="71.720833"
           x="391.93918"
           y="78.979645" /></flowRegion><flowPara
         id="flowPara4320"></flowPara></flowRoot>    <g
       style="font-style:normal;font-variant:normal;font-weight:normal;font-stretch:normal;font-size:215.65113831px;line-height:125%;font-family:'Bitstream Charter';-inkscape-font-specification:'Bitstream Charter, Normal';text-align:start;letter-spacing:0px;word-spacing:0px;writing-mode:lr-tb;text-anchor:start;fill:#00a800;fill-opacity:1;stroke:#00a800;stroke-width:8;stroke-linecap:butt;stroke-linejoin:miter;stroke-miterlimit:4;stroke-dasharray:none;stroke-opacity:1"
       id="text4322">
      <path
         d="m 152.98807,955.82739 54.55973,0 0,-8.84169 -13.80167,-1.07826 -3.66607,-3.01912 0,-118.82377 3.66607,-3.01912 13.80167,-1.29391 0,-8.62604 -54.55973,0 0,8.62604 13.80167,1.29391 3.66607,3.01912 0,118.82377 -3.66607,3.01912 -13.80167,1.07826 0,8.84169 z"
         style="stroke-width:8;stroke-miterlimit:4;stroke-dasharray:none"
         id="path4331" />
      <path
         d="m 221.6123,955.82739 50.24672,0 0,-7.76344 -13.37037,-1.07825 -3.66607,-3.45042 0,-78.49702 30.19116,0 0,-10.1356 -29.97551,0 0,-15.74253 c 0,-18.1147 4.74433,-29.32856 14.01732,-33.64158 l 19.62426,12.93907 c 5.60693,-1.50956 8.8417,-5.60693 8.8417,-10.78256 0,-6.90084 -6.90084,-12.29211 -16.82079,-12.29211 -25.44684,0 -43.77718,21.34946 -43.77718,57.14755 0,0.64695 0,1.50956 0,2.37216 l -13.80168,3.23477 0,6.90083 13.80168,0 0,78.49702 -3.88173,3.45042 -11.42951,1.07825 0,7.76344 z"
         style="stroke-width:8;stroke-miterlimit:4;stroke-dasharray:none"
         id="path4333" />
      <path
         id="path4355"
         style="stroke-width:1.92872441;stroke-miterlimit:4;stroke-dasharray:none"
         d="m 143.48796,1016.4417 13.15384,0 0,-2.1316 -3.32745,-0.26 -0.88386,-0.7279 0,-28.64725 0.88386,-0.72788 3.32745,-0.31195 0,-2.07965 -13.15384,0 0,2.07965 3.32745,0.31195 0.88386,0.72788 0,28.64725 -0.88386,0.7279 -3.32745,0.26 0,2.1316 z"
         inkscape:connector-curvature="0" />
      <path
         id="path4357"
         style="stroke-width:1.93252659;stroke-miterlimit:4;stroke-dasharray:none"
         d="m 247.1014,1017.45 12.13788,0 0,-1.8754 -3.22982,-0.2604 -0.8856,-0.8336 0,-18.96218 7.29316,0 0,-2.44842 -7.24106,0 0,-3.80285 c 0,-4.37589 1.14606,-7.08477 3.3861,-8.12665 l 4.74056,3.12563 c 1.35444,-0.36465 2.13584,-1.35445 2.13584,-2.60469 0,-1.66702 -1.667,-2.96936 -4.06332,-2.96936 -6.14709,0 -10.57508,5.1573 -10.57508,13.8049 0,0.15628 0,0.36465 0,0.57302 l -3.33401,0.78142 0,1.667 3.33401,0 0,18.96218 -0.93769,0.8336 -2.76097,0.2604 0,1.8754 z"
         inkscape:connector-curvature="0" />
    </g>
  </g>
</svg>
